HIERARCHY
ROOT Hips
{
 OFFSET 0.000000 0.000000 0.000000
 CHANNELS 6 Xposition Yposition Zposition Yrotation Xrotation Zrotation
 JOINT Chest
 {
  OFFSET 0.000000 9.585900 0.002600
  CHANNELS 3 Yrotation Xrotation Zrotation
  JOINT Chest2
  {
   OFFSET 0.000000 9.601200 -0.005300
   CHANNELS 3 Yrotation Xrotation Zrotation
   JOINT Chest3
   {
    OFFSET 0.000000 9.561800 0.000000
    CHANNELS 3 Yrotation Xrotation Zrotation
    JOINT Chest4
    {
     OFFSET 0.000000 9.552100 0.000000
     CHANNELS 3 Yrotation Xrotation Zrotation
     JOINT Neck
     {
      OFFSET 0.000000 14.453000 0.000000
      CHANNELS 3 Yrotation Xrotation Zrotation
      JOINT Head
      {
       OFFSET 0.000000 8.936500 -0.011300
       CHANNELS 3 Yrotation Xrotation Zrotation
       End Site
       {
        OFFSET 0.000000 17.073600 -0.006000
       }
      }
     }
     JOINT RightCollar
     {
      OFFSET -2.921100 9.558500 0.000000
      CHANNELS 3 Yrotation Xrotation Zrotation
      JOINT RightShoulder
      {
       OFFSET -13.519700 0.000000 0.000000
       CHANNELS 3 Yrotation Xrotation Zrotation
       JOINT RightElbow
       {
        OFFSET 0.000000 -29.696600 0.000000
        CHANNELS 3 Yrotation Xrotation Zrotation
        JOINT RightWrist
        {
         OFFSET 0.000000 -24.004700 0.000000
         CHANNELS 3 Yrotation Xrotation Zrotation
         End Site
         {
          OFFSET 0.000000 -17.728500 0.000000
         }
        }
       }
      }
     }
     JOINT LeftCollar
     {
      OFFSET 2.921100 9.558500 0.000000
      CHANNELS 3 Yrotation Xrotation Zrotation
      JOINT LeftShoulder
      {
       OFFSET 13.519700 0.000000 0.000000
       CHANNELS 3 Yrotation Xrotation Zrotation
       JOINT LeftElbow
       {
        OFFSET 0.000000 -29.696600 0.000000
        CHANNELS 3 Yrotation Xrotation Zrotation
        JOINT LeftWrist
        {
         OFFSET 0.000000 -24.004700 0.000000
         CHANNELS 3 Yrotation Xrotation Zrotation
         End Site
         {
          OFFSET 0.000000 -17.728500 0.000000
         }
        }
       }
      }
     }
    }
   }
  }
 }
 JOINT RightHip
 {
  OFFSET -7.771700 -0.012900 -0.001300
  CHANNELS 3 Yrotation Xrotation Zrotation
  JOINT RightKnee
  {
   OFFSET 0.000000 -40.869800 0.001200
   CHANNELS 3 Yrotation Xrotation Zrotation
   JOINT RightAnkle
   {
    OFFSET 0.000000 -39.717900 0.002100
    CHANNELS 3 Yrotation Xrotation Zrotation
    JOINT RightToe
    {
     OFFSET 0.000000 -4.965400 11.033500
     CHANNELS 3 Yrotation Xrotation Zrotation
     End Site
     {
      OFFSET 0.000000 -1.423100 5.872300
     }
    }
   }
  }
 }
 JOINT LeftHip
 {
  OFFSET 7.771700 -0.012900 -0.001300
  CHANNELS 3 Yrotation Xrotation Zrotation
  JOINT LeftKnee
  {
   OFFSET 0.000000 -40.869800 0.001200
   CHANNELS 3 Yrotation Xrotation Zrotation
   JOINT LeftAnkle
   {
    OFFSET 0.000000 -39.717900 0.002100
    CHANNELS 3 Yrotation Xrotation Zrotation
    JOINT LeftToe
    {
     OFFSET 0.000000 -4.965400 11.033500
     CHANNELS 3 Yrotation Xrotation Zrotation
     End Site
     {
      OFFSET 0.000000 -1.423100 5.872300
     }
    }
   }
  }
 }
}
MOTION
Frames: 14
Frame Time: 0.008333
0.000000 85.388000 0.000000 0.000000 -5.767877 0.000000 0.000000 11.653817 0.000000 0.000000 -5.885947 0.000000 0.000000 -0.000000 0.000000 0.000000 -0.000000 0.000000 0.000000 12.528835 0.000000 0.000000 0.711642 0.000000 0.000000 -0.000000 0.000000 0.000000 0.000000 -90.000000 0.000000 -2.309062 0.000000 0.000000 2.309062 0.000000 0.000000 -0.000000 0.000000 0.000000 -0.000000 90.000000 0.000000 -2.309062 0.000000 0.000000 2.309062 0.000000 0.000000 8.520406 0.000000 0.000000 1.905762 0.000000 -0.000000 -4.658285 0.000000 0.000000 -0.000000 0.000000 0.000000 8.520406 0.000000 0.000000 1.905762 0.000000 -0.000000 -4.658285 0.000000 0.000000 -0.000000 0.000000
-34.975123 49.988100 21.218956 164.884648 -24.123008 0.810008 1.449793 12.051140 3.785718 0.136471 0.905259 0.221679 0.234982 1.544573 0.379750 1.904417 10.892610 2.854484 0.431185 16.100625 2.133088 0.042499 -5.880751 3.811594 5.892424 5.418279 -0.288267 7.474163 -24.477926 -15.232556 39.151165 -40.423330 -21.143348 9.463610 12.820979 -24.875045 -9.350332 -0.623815 0.051689 -7.271213 -21.062700 10.549094 -35.313919 -32.938671 14.344042 -1.243331 3.911073 25.969612 -3.645205 -57.610360 -2.088900 -126.554409 81.579504 -126.585582 -5.429909 -16.137890 0.439359 -0.233196 1.269017 -0.214199 0.357488 -61.837417 16.501355 89.976529 76.635746 86.635304 -15.239819 -21.360925 1.510802 -0.369500 -0.922965 -0.319002
-34.984476 49.986472 21.248202 164.887678 -24.230697 0.804040 1.415440 12.065378 3.839324 0.135839 0.920243 0.226640 0.233885 1.569344 0.387968 1.886852 10.973506 2.889346 0.403664 16.101389 2.161410 -0.018680 -5.878076 3.873986 5.878031 5.463505 -0.349273 7.568633 -24.421257 -15.367043 39.051118 -40.784777 -21.176379 9.482922 12.830875 -24.766707 -9.405150 -0.521438 0.021577 -7.199375 -21.174445 10.555345 -34.990651 -33.102468 14.133262 -1.161484 3.663976 26.079317 -3.634319 -57.517011 -2.036355 -126.587480 81.611093 -126.665466 -5.526030 -16.181058 0.509980 -0.219819 1.276000 -0.205635 0.411039 -61.758806 16.334926 89.695442 76.593235 86.497183 -15.193521 -21.340269 1.466282 -0.357463 -0.933778 -0.331187
-34.992207 49.986066 21.279640 164.896556 -24.373031 0.785999 1.379470 12.117206 3.901684 0.135174 0.935146 0.231434 0.232707 1.593963 0.395964 1.869175 11.053325 2.922220 0.379098 16.102094 2.188970 -0.074101 -5.875493 3.933962 5.884497 5.468889 -0.437390 7.596210 -24.322955 -15.430321 39.010916 -41.143328 -21.256965 9.506010 12.846406 -24.658391 -9.459738 -0.409878 -0.003408 -7.158583 -21.193586 10.698419 -34.613899 -33.434451 13.876704 -1.110052 3.477212 26.155212 -3.668319 -57.386162 -1.943552 -126.501938 81.615148 -126.636606 -5.602727 -16.253670 0.578326 -0.201977 1.294952 -0.197157 0.427771 -61.643591 16.201690 89.421985 76.523031 86.361406 -15.176477 -21.326854 1.417450 -0.331592 -0.938862 -0.334522
-35.005121 49.988334 21.307312 164.874085 -24.561147 0.822923 1.363569 12.220471 3.919539 0.134575 0.950389 0.236190 0.231715 1.619122 0.403910 1.852722 11.134144 2.953738 0.357652 16.101348 2.215972 -0.123557 -5.875658 3.991847 5.808690 5.575090 -0.438807 7.717893 -24.312698 -15.576803 39.027279 -41.501572 -21.377908 9.533553 12.869067 -24.550453 -9.513474 -0.295801 -0.022607 -7.078406 -21.255356 10.769912 -34.336588 -33.726231 13.674627 -1.083946 3.341956 26.205899 -3.627639 -57.211208 -1.916066 -126.396984 81.613584 -126.602286 -5.683326 -16.361660 0.650957 -0.176405 1.335499 -0.187836 0.536808 -61.478990 16.003190 89.323461 76.428657 86.339306 -15.132659 -21.317961 1.436566 -0.399323 -0.967130 -0.374573
-35.008479 49.988820 21.343628 164.894198 -24.727748 0.782493 1.322609 12.308380 3.994947 0.134144 0.965794 0.240844 0.231022 1.644517 0.411694 1.838485 11.214886 2.983781 0.339973 16.098941 2.243017 -0.166082 -5.879012 4.048504 5.758888 5.634238 -0.467687 7.760940 -24.262593 -15.649245 39.095935 -41.864232 -21.535197 9.563879 12.901258 -24.443133 -9.566888 -0.182864 -0.036826 -6.976321 -21.343926 10.808690 -34.136050 -34.000277 13.511745 -1.073764 3.251933 26.233140 -3.737172 -57.051379 -1.767928 -126.199481 81.590034 -126.463476 -5.725366 -16.484445 0.704789 -0.153048 1.371037 -0.181446 0.482196 -61.335995 15.941049 89.037455 76.327793 86.183587 -15.181508 -21.310341 1.383421 -0.350078 -0.961362 -0.366133
-35.013068 49.988323 21.383345 164.904920 -24.876499 0.758678 1.289283 12.389105 4.054039 0.143859 1.005509 0.223183 0.221271 1.643825 0.441549 1.826417 11.291424 3.013164 0.325542 16.097502 2.269440 -0.202346 -5.880689 4.102783 5.723217 5.670238 -0.508578 7.755705 -24.188199 -15.674549 39.202671 -42.234142 -21.725149 9.592265 12.938495 -24.339233 -9.620727 -0.069327 -0.047268 -6.863541 -21.438132 10.844079 -33.992783 -34.281458 13.373539 -1.076019 3.202786 26.239083 -3.811295 -56.909849 -1.652608 -126.123115 81.602345 -126.469624 -5.739402 -16.618428 0.803527 -0.203947 1.415824 -0.209882 0.440515 -61.209044 15.869749 88.748145 76.216956 86.017023 -15.235287 -21.295419 1.327690 -0.260261 -0.959292 -0.347505
-35.021410 49.988269 21.422156 164.909381 -25.024105 0.772669 1.257539 12.476939 4.074832 0.151140 1.040942 0.207674 0.221175 1.656792 0.444532 1.811879 11.352438 3.067591 0.314271 16.098403 2.294181 -0.232097 -5.878001 4.152689 5.685416 5.703544 -0.546182 7.740022 -24.102524 -15.682570 39.328448 -42.614854 -21.938570 9.618975 12.977600 -24.241877 -9.674470 0.043725 -0.054764 -6.744298 -21.536346 10.875627 -33.906304 -34.565114 13.259176 -1.087449 3.189665 26.232040 -3.794556 -56.769776 -1.653120 -126.166686 81.632262 -126.575565 -5.715620 -16.782520 0.906007 -0.290561 1.474704 -0.254912 0.448289 -61.083889 15.737981 88.537035 76.103432 85.900892 -15.244377 -21.269800 1.298101 -0.209517 -0.966151 -0.361709
-35.019396 49.988499 21.463478 164.936432 -25.170132 0.726001 1.229461 12.593027 4.130520 0.126822 0.980035 0.271299 0.231761 1.720941 0.422393 1.800121 11.433428 3.084098 0.307079 16.099679 2.317711 -0.253790 -5.874714 4.198821 5.646794 5.735833 -0.578635 7.724973 -24.007648 -15.683287 39.463065 -43.006785 -22.167470 9.643295 13.018270 -24.156660 -9.726892 0.152543 -0.059382 -6.622460 -21.639732 10.903634 -33.879472 -34.840200 13.173639 -1.103335 3.207597 26.218938 -3.985169 -56.619506 -1.390026 -125.737393 81.595910 -126.278056 -5.809337 -16.961858 1.007056 -0.260635 1.540965 -0.247867 0.328098 -60.963265 15.723014 88.336969 75.995800 85.791635 -15.220479 -21.257783 1.271634 -0.207599 -0.971166 -0.374843
-35.018765 49.989032 21.504343 164.966858 -25.313561 0.699172 1.184118 12.663671 4.185211 0.133653 1.031563 0.248767 0.223982 1.719586 0.460571 1.786644 11.516255 3.101415 0.303679 16.099778 2.340623 -0.268242 -5.873890 4.242559 5.604874 5.772458 -0.604028 7.720932 -23.907249 -15.687283 39.600102 -43.407368 -22.408861 9.663791 13.057837 -24.085098 -9.780498 0.259380 -0.063349 -6.501733 -21.750301 10.930943 -33.910844 -35.101244 13.119174 -1.128020 3.253652 26.197268 -4.107065 -56.471723 -1.221563 -125.463296 81.581279 -126.110054 -5.877885 -17.161084 1.116028 -0.265071 1.612031 -0.259994 0.229727 -60.843599 15.678472 88.144532 75.898513 85.683573 -15.209606 -21.240699 1.247052 -0.217172 -0.995195 -0.369900
-35.016797 49.989916 21.545136 164.992784 -25.457973 0.679127 1.143799 12.736154 4.232591 0.137678 1.081516 0.227647 0.226297 1.733256 0.464943 1.776658 11.589336 3.153091 0.303110 16.097503 2.362904 -0.277321 -5.877606 4.284340 5.556166 5.814967 -0.623946 7.733624 -23.805184 -15.699548 39.733549 -43.815433 -22.662809 9.686316 13.096529 -24.019874 -9.839811 0.366407 -0.066873 -6.386595 -21.868431 10.959396 -33.994196 -35.352753 13.097422 -1.164774 3.330140 26.163147 -4.195912 -56.323658 -1.091597 -125.307065 81.581249 -126.045528 -5.936176 -17.375469 1.234663 -0.288170 1.683468 -0.286311 0.124369 -60.720853 15.641794 87.974050 75.809452 85.587118 -15.183271 -21.226402 1.223372 -0.220577 -1.010396 -0.379977
-35.011261 49.990328 21.588024 165.012935 -25.595319 0.650023 1.119822 12.832856 4.276865 0.139415 1.079794 0.242500 0.227226 1.767467 0.450206 1.768613 11.671215 3.204866 0.305094 16.090964 2.383915 -0.282678 -5.915988 4.257142 5.500847 5.859586 -0.642878 7.761326 -23.706360 -15.719513 39.868520 -44.230463 -22.929475 9.712606 13.138335 -23.957789 -9.903905 0.468757 -0.068531 -6.282520 -21.992288 10.986887 -34.124273 -35.596875 13.111228 -1.211710 3.440644 26.114320 -4.292971 -56.181770 -0.940165 -125.180986 81.585375 -126.009469 -6.000166 -17.605869 1.363281 -0.314257 1.757564 -0.318047 -0.017377 -60.604681 15.647612 87.824309 75.726379 85.498727 -15.123382 -21.216883 1.201590 -0.207326 -1.025016 -0.389304
-35.005566 49.989338 21.634092 165.030495 -25.714888 0.628256 1.102762 12.939146 4.300171 0.132343 1.057398 0.269158 0.223181 1.806662 0.504895 1.759871 11.752962 3.189781 0.309078 16.078526 2.402843 -0.282539 -5.924767 4.324744 5.443018 5.905938 -0.663056 7.796214 -23.615909 -15.745692 40.009313 -44.645832 -23.202472 9.738966 13.182333 -23.902459 -9.971145 0.564282 -0.067753 -6.194982 -22.118862 11.011236 -34.290786 -35.833472 13.160310 -1.273122 3.590378 26.046860 -4.372749 -56.060465 -0.797913 -125.080259 81.590288 -125.995304 -6.082799 -17.856853 1.497773 -0.334486 1.837875 -0.347418 -0.166646 -60.505261 15.660370 87.684679 75.646831 85.408008 -15.067770 -21.207555 1.185064 -0.205628 -1.041837 -0.399890
-35.000805 49.987436 21.682068 165.042919 -25.824503 0.622778 1.082422 13.017573 4.333782 0.125837 1.064015 0.313448 0.227746 1.845813 0.474086 1.753990 11.827484 3.216610 0.314756 16.058163 2.419687 -0.277031 -5.949703 4.386515 5.385440 5.955117 -0.683300 7.831455 -23.534243 -15.774744 40.156282 -45.053363 -23.476586 9.763942 13.226800 -23.855213 -10.041347 0.655127 -0.062068 -6.129102 -22.242332 11.030929 -34.478903 -36.063272 13.244920 -1.357195 3.784972 25.949496 -4.419753 -55.953144 -0.679816 -125.009822 81.594704 -126.007316 -6.188895 -18.127877 1.634982 -0.342167 1.921364 -0.369738 -0.311193 -60.412486 15.668766 87.558508 75.572237 85.316618 -15.033637 -21.198233 1.175064 -0.228264 -1.063404 -0.413667
